<svg viewBox="0 -21 512 512" xmlns="http://www.w3.org/2000/svg"><path d="m60 217.882812h30v252.816407h-30zm0 0" fill="#663325"/><path d="m422.902344 17.101562c-12.902344 2.398438-25.800782 3.597657-38.703125 3.597657-43.796875 0-86.5 10.800781-128.199219 33.300781-41.699219-22.5-84.402344-33.300781-128.199219-33.300781-12.902343 0-25.800781-1.199219-38.703125-3.597657l-89.097656-17.101562v100.199219c0 88.5 73 160.5 161.5 160.5 39.898438 0 64.5-15.300781 94.5-34.199219 30 18.898438 55.300781 34.199219 95.5 34.199219 88.5 0 160.5-72 160.5-160.5v-100.199219zm-261.402344 153.597657c-36 0-67-27.300781-70.898438-62.398438 12.296876 1.5 24.898438 2.398438 37.199219 2.398438 43.199219 0 76 16.5 97 29.101562-18.300781 10.796875-43.199219 30.898438-63.300781 30.898438zm190 0c-20.101562 0-32.199219-12.300781-64.300781-30.898438 21-12.601562 54.101562-29.101562 97-29.101562 12.300781 0 24.902343-.898438 37.199219-2.398438-3.898438 35.097657-33.898438 62.398438-69.898438 62.398438zm0 0" fill="#e63950"/><path d="m422.902344 17.101562c-12.902344 2.398438-25.800782 3.597657-38.703125 3.597657-43.796875 0-86.5 10.800781-128.199219 33.300781v172.5c30 18.898438 55.300781 34.199219 95.5 34.199219 88.5 0 160.5-72 160.5-160.5v-100.199219zm-71.402344 153.597657c-20.101562 0-32.199219-12.300781-64.300781-30.898438 21-12.601562 54.101562-29.101562 97-29.101562 12.300781 0 24.902343-.898438 37.199219-2.398438-3.898438 35.097657-33.898438 62.398438-69.898438 62.398438zm0 0" fill="#cc2e43"/></svg>