<?xml version="1.0" encoding="UTF-8" standalone="no"?>
<svg version="1.1" xmlns="http://www.w3.org/2000/svg" style="font-family: Arial; " width="800" height="450" viewBox="0 0 800 450"><title>Redes sociales mas usadas en mexico</title><defs><clipPath id="chart-clipPath-exact"><rect height="308" width="664"></rect></clipPath><clipPath id="chart-clipPath-buffer"><rect x="-10" y="-10" height="328" width="684"></rect></clipPath></defs><g class="scaler"><rect width="800" height="450" fill="rgb(69, 169, 160)" fill-opacity="1"></rect><g class="canvas" transform="translate(75,72)"><g class="grid"><g class="axis-grid x" transform="translate(0,307)"><line class="grid" x1="0" x2="0" y1="-1" y2="-307" style="stroke: #ffffff; stroke-opacity: 0.5; stroke-width: 1px; " transform="translate(57.00000000000001,0)"></line><line class="grid" x1="0" x2="0" y1="-1" y2="-307" style="stroke: #ffffff; stroke-opacity: 0.5; stroke-width: 1px; " transform="translate(148.66666666666669,0)"></line><line class="grid" x1="0" x2="0" y1="-1" y2="-307" style="stroke: #ffffff; stroke-opacity: 0.5; stroke-width: 1px; " transform="translate(240.33333333333337,0)"></line><line class="grid" x1="0" x2="0" y1="-1" y2="-307" style="stroke: #ffffff; stroke-opacity: 0.5; stroke-width: 1px; " transform="translate(332,0)"></line><line class="grid" x1="0" x2="0" y1="-1" y2="-307" style="stroke: #ffffff; stroke-opacity: 0.5; stroke-width: 1px; " transform="translate(423.6666666666667,0)"></line><line class="grid" x1="0" x2="0" y1="-1" y2="-307" style="stroke: #ffffff; stroke-opacity: 0.5; stroke-width: 1px; " transform="translate(515.3333333333334,0)"></line><line class="grid" x1="0" x2="0" y1="-1" y2="-307" style="stroke: #ffffff; stroke-opacity: 0.5; stroke-width: 1px; " transform="translate(607,0)"></line></g><g class="axis-grid y" transform="translate(1,0)"><line class="grid" x1="1" x2="661" y1="0" y2="0" style="stroke: #ffffff; stroke-opacity: 0.5; stroke-width: 1px; " transform="translate(0,306)"></line><line class="grid" x1="1" x2="661" y1="0" y2="0" style="stroke: #ffffff; stroke-opacity: 0.5; stroke-width: 1px; " transform="translate(0,255)"></line><line class="grid" x1="1" x2="661" y1="0" y2="0" style="stroke: #ffffff; stroke-opacity: 0.5; stroke-width: 1px; " transform="translate(0,204)"></line><line class="grid" x1="1" x2="661" y1="0" y2="0" style="stroke: #ffffff; stroke-opacity: 0.5; stroke-width: 1px; " transform="translate(0,153)"></line><line class="grid" x1="1" x2="661" y1="0" y2="0" style="stroke: #ffffff; stroke-opacity: 0.5; stroke-width: 1px; " transform="translate(0,102)"></line><line class="grid" x1="1" x2="661" y1="0" y2="0" style="stroke: #ffffff; stroke-opacity: 0.5; stroke-width: 1px; " transform="translate(0,51)"></line><line class="grid" x1="1" x2="661" y1="0" y2="0" style="stroke: #ffffff; stroke-opacity: 0.5; stroke-width: 1px; " transform="translate(0,0)"></line></g><g class="axis-grid y2" transform="translate(663,0)"></g><g class="axis-grid x2" transform="translate(0,1)"></g></g><rect class="trigger-layer" height="379" width="698" opacity="0"></rect><g class="chart"><g class="series s0"><g class="bar"><rect fill="rgb(255, 255, 255)" opacity="1" x="20.333333333333336" width="73.33333333333334" y="5.100000000000023" height="300.9" clip-path="url(#chart-clipPath-exact)"></rect></g><g class="bar"><rect fill="rgb(255, 255, 255)" opacity="1" x="112" width="73.33333333333334" y="10.199999999999989" height="295.8" clip-path="url(#chart-clipPath-exact)"></rect></g><g class="bar"><rect fill="rgb(255, 255, 255)" opacity="1" x="203.66666666666669" width="73.33333333333334" y="20.399999999999977" height="285.6" clip-path="url(#chart-clipPath-exact)"></rect></g><g class="bar"><rect fill="rgb(255, 255, 255)" opacity="1" x="295.3333333333333" width="73.33333333333334" y="76.5" height="229.5" clip-path="url(#chart-clipPath-exact)"></rect></g><g class="bar"><rect fill="rgb(255, 255, 255)" opacity="1" x="387" width="73.33333333333334" y="122.4" height="183.6" clip-path="url(#chart-clipPath-exact)"></rect></g><g class="bar"><rect fill="rgb(255, 255, 255)" opacity="1" x="478.6666666666667" width="73.33333333333334" y="142.8" height="163.2" clip-path="url(#chart-clipPath-exact)"></rect></g><g class="bar"><rect fill="rgb(255, 255, 255)" opacity="1" x="570.3333333333334" width="73.33333333333334" y="142.8" height="163.2" clip-path="url(#chart-clipPath-exact)"></rect></g></g></g><g class="axes"><g class="axis-labels"><g class="bottom"><g class="label" transform="translate(332,332)"><text style="text-anchor: middle; font-family: Arial; font-size: 16px; " fill="rgb(255, 255, 255)" dy="16" transform="rotate(0)">Facebook</text></g></g><g class="left"><g class="label" transform="translate(-50,154)"><text style="text-anchor: middle; font-family: Arial; font-size: 16px; " fill="rgb(255, 255, 255)" dy="16" transform="rotate(270)"></text></g></g><g class="right"><g class="label" transform="translate(700,154)"><text style="text-anchor: middle; font-family: Arial; font-size: 16px; " fill="rgb(255, 255, 255)" dy="16" transform="rotate(90)"></text></g></g></g><g class="axis bottom" transform="translate(0,307)"><g class="tick major" style="opacity: 1; display: block; " transform="translate(57.00000000000001,0)"><line y2="7" x2="0"></line><text y="10" x="0" dy="6" style="fill: #ffffff; fill-opacity: 1; font-family: Arial; font-size: 12px; text-anchor: middle; " transform="rotate(0, 0, 10)translate(0,0)" data-org-x="0" data-org-y="10">Facebook</text></g><g class="tick major" style="opacity: 1; display: block; " transform="translate(148.66666666666669,0)"><line y2="7" x2="0"></line><text y="10" x="0" dy="6" style="fill: #ffffff; fill-opacity: 1; font-family: Arial; font-size: 12px; text-anchor: middle; " transform="rotate(0, 0, 10)translate(0,0)" data-org-x="0" data-org-y="10">Youtube</text></g><g class="tick major" style="opacity: 1; display: block; " transform="translate(240.33333333333337,0)"><line y2="7" x2="0"></line><text y="10" x="0" dy="6" style="fill: #ffffff; fill-opacity: 1; font-family: Arial; font-size: 12px; text-anchor: middle; " transform="rotate(0, 0, 10)translate(0,0)" data-org-x="0" data-org-y="10">Whatsapp</text></g><g class="tick major" style="opacity: 1; display: block; " transform="translate(332,0)"><line y2="7" x2="0"></line><text y="10" x="0" dy="6" style="fill: #ffffff; fill-opacity: 1; font-family: Arial; font-size: 12px; text-anchor: middle; " transform="rotate(0, 0, 10)translate(0,0)" data-org-x="0" data-org-y="10">FB Messenger</text></g><g class="tick major" style="opacity: 1; display: block; " transform="translate(423.6666666666667,0)"><line y2="7" x2="0"></line><text y="10" x="0" dy="6" style="fill: #ffffff; fill-opacity: 1; font-family: Arial; font-size: 12px; text-anchor: middle; " transform="rotate(0, 0, 10)translate(0,0)" data-org-x="0" data-org-y="10">Instagram</text></g><g class="tick major" style="opacity: 1; display: block; " transform="translate(515.3333333333334,0)"><line y2="7" x2="0"></line><text y="10" x="0" dy="6" style="fill: #ffffff; fill-opacity: 1; font-family: Arial; font-size: 12px; text-anchor: middle; " transform="rotate(0, 0, 10)translate(0,0)" data-org-x="0" data-org-y="10">Twitter</text></g><g class="tick major" style="opacity: 1; display: block; " transform="translate(607,0)"><line y2="7" x2="0"></line><text y="10" x="0" dy="6" style="fill: #ffffff; fill-opacity: 1; font-family: Arial; font-size: 12px; text-anchor: middle; " transform="rotate(0, 0, 10)translate(0,0)" data-org-x="0" data-org-y="10">Google+</text></g><path class="domain" d="M2,0V0H662V0" stroke-width="2" fill="none" stroke="rgb(255, 255, 255)" stroke-opacity="1"></path><path class="filler" d="M0,0V0H2V0" stroke-width="2" fill="none" stroke="rgb(255, 255, 255)" stroke-opacity="1"></path></g><g class="axis left" transform="translate(1,0)"><g class="tick major" style="opacity: 1; display: block; " transform="translate(0,306)"><line x2="-7" y2="0"></line><text x="-10" y="0" dy="6" style="fill: #ffffff; fill-opacity: 1; font-family: Arial; font-size: 12px; text-anchor: end; " transform="rotate(0, -10, 0)translate(0,0)" data-org-x="-10" data-org-y="0">0</text></g><g class="tick major" style="opacity: 1; display: block; " transform="translate(0,255)"><line x2="-7" y2="0"></line><text x="-10" y="0" dy="6" style="fill: #ffffff; fill-opacity: 1; font-family: Arial; font-size: 12px; text-anchor: end; " transform="rotate(0, -10, 0)translate(0,0)" data-org-x="-10" data-org-y="0">10</text></g><g class="tick major" style="opacity: 1; display: block; " transform="translate(0,204)"><line x2="-7" y2="0"></line><text x="-10" y="0" dy="6" style="fill: #ffffff; fill-opacity: 1; font-family: Arial; font-size: 12px; text-anchor: end; " transform="rotate(0, -10, 0)translate(0,0)" data-org-x="-10" data-org-y="0">20</text></g><g class="tick major" style="opacity: 1; display: block; " transform="translate(0,153)"><line x2="-7" y2="0"></line><text x="-10" y="0" dy="6" style="fill: #ffffff; fill-opacity: 1; font-family: Arial; font-size: 12px; text-anchor: end; " transform="rotate(0, -10, 0)translate(0,0)" data-org-x="-10" data-org-y="0">30</text></g><g class="tick major" style="opacity: 1; display: block; " transform="translate(0,102)"><line x2="-7" y2="0"></line><text x="-10" y="0" dy="6" style="fill: #ffffff; fill-opacity: 1; font-family: Arial; font-size: 12px; text-anchor: end; " transform="rotate(0, -10, 0)translate(0,0)" data-org-x="-10" data-org-y="0">40</text></g><g class="tick major" style="opacity: 1; display: block; " transform="translate(0,51)"><line x2="-7" y2="0"></line><text x="-10" y="0" dy="6" style="fill: #ffffff; fill-opacity: 1; font-family: Arial; font-size: 12px; text-anchor: end; " transform="rotate(0, -10, 0)translate(0,0)" data-org-x="-10" data-org-y="0">50</text></g><g class="tick major" style="opacity: 1; display: block; " transform="translate(0,0)"><line x2="-7" y2="0"></line><text x="-10" y="0" dy="6" style="fill: #ffffff; fill-opacity: 1; font-family: Arial; font-size: 12px; text-anchor: end; " transform="rotate(0, -10, 0)translate(0,0)" data-org-x="-10" data-org-y="0">60</text></g><path class="domain" d="M0,0H0V306H0" stroke-width="2" fill="none" stroke="rgb(255, 255, 255)" stroke-opacity="1"></path></g><g class="axis right" transform="translate(663,0)"><path class="domain" d="M0,0H0V306H0" stroke-width="2" fill="none" stroke="rgb(255, 255, 255)" stroke-opacity="1"></path></g></g></g><g class="label" transform="translate(25,25)"><text style="text-anchor: start; font-family: Arial; font-size: 22px; " fill="rgb(255, 255, 255)" dy="22" transform="rotate(0)">Redes sociales mas usadas en mexico</text></g><g class="legend" transform="translate(601.39822387695,25)"><g class="row" transform="translate(0,0)"><text class="key" style="font-size: 14px; fill: #ffffff; fill-opacity: 1; " dx="28" dy="14">Tiempo dedicado</text><path class="shape" d="M0,7.898654169668588A7.898654169668588,7.898654169668588 0 1,1 0,-7.898654169668588A7.898654169668588,7.898654169668588 0 1,1 0,7.898654169668588Z" style="fill: #ffffff; fill-opacity: 1; " transform="translate(14,9.24)"></path></g></g></g></svg>